<svg version="1.0" xmlns="http://www.w3.org/2000/svg"
 width="900.000000pt" height="894.000000pt" viewBox="0 0 900.000000 894.000000"
 preserveAspectRatio="xMidYMid meet">
<metadata>
Created by potrace 1.10, written by Peter Selinger 2001-2011
</metadata>
<g transform="translate(0.000000,894.000000) scale(0.100000,-0.100000)"
fill="#000000" stroke="none">
<path d="M4134 8931 c9 -13 -16 -20 -117 -31 -242 -27 -401 -56 -652 -120
-151 -39 -400 -119 -489 -159 -27 -11 -52 -21 -57 -21 -30 0 -483 -224 -593
-293 -11 -7 -58 -36 -105 -66 -304 -189 -631 -451 -647 -517 -14 -56 50 -134
110 -134 38 0 98 40 283 191 389 315 901 584 1408 739 188 57 460 114 675 141
409 51 924 37 1265 -33 55 -11 123 -24 150 -29 56 -9 170 -37 200 -49 11 -4
58 -17 105 -30 47 -12 94 -26 105 -30 11 -5 49 -18 85 -30 36 -11 74 -25 85
-30 11 -5 49 -21 85 -34 129 -48 472 -213 526 -253 17 -13 35 -23 40 -23 5 0
31 -15 59 -34 27 -18 109 -72 180 -120 201 -134 326 -234 520 -415 280 -262
530 -574 729 -911 59 -98 216 -400 216 -414 0 -2 13 -33 28 -68 16 -35 35 -79
42 -98 7 -19 18 -48 25 -65 63 -156 126 -365 176 -585 20 -85 24 -107 54 -295
63 -394 57 -935 -15 -1320 -5 -27 -14 -75 -20 -105 -5 -30 -15 -82 -21 -115
-6 -33 -15 -64 -20 -69 -5 -6 -9 -20 -9 -32 0 -78 -191 -614 -280 -784 -10
-19 -33 -64 -50 -100 -18 -36 -51 -96 -73 -135 -87 -151 -122 -210 -127 -215
-3 -3 -17 -23 -30 -45 -24 -40 -266 -369 -292 -396 -7 -8 -31 -34 -52 -59 -70
-81 -225 -238 -319 -322 -50 -46 -96 -88 -102 -94 -13 -15 -220 -179 -277
-220 -191 -136 -390 -256 -606 -363 -67 -34 -124 -61 -126 -61 -3 0 -29 -11
-58 -25 -292 -135 -693 -248 -1086 -305 -307 -45 -874 -47 -1136 -5 -407 66
-693 138 -931 236 -266 108 -470 204 -565 264 -22 14 -42 25 -45 25 -6 0 -213
130 -296 186 -79 53 -203 149 -344 267 -87 72 -313 297 -415 412 -93 105 -264
327 -342 445 -109 165 -269 456 -333 605 -64 152 -111 270 -131 335 -13 41
-28 84 -34 95 -8 18 -41 133 -76 265 -8 30 -21 91 -30 135 -9 44 -22 112 -30
150 -8 39 -18 111 -24 160 -6 50 -16 128 -23 175 -7 53 -12 203 -11 400 0 322
18 551 59 745 8 39 19 95 25 125 11 62 59 250 93 365 26 88 99 290 108 299 5
6 9 16 9 24 0 7 9 34 21 60 105 237 155 334 304 590 81 139 319 458 380 507
37 31 46 46 56 91 17 75 4 121 -40 151 -38 25 -98 30 -123 11 -20 -16 -254
-308 -308 -385 -276 -390 -500 -829 -623 -1223 -56 -178 -73 -241 -102 -365
-9 -38 -20 -86 -25 -105 -12 -48 -45 -248 -67 -405 -15 -108 -18 -195 -17
-525 0 -355 2 -410 22 -544 29 -190 46 -287 73 -406 11 -52 24 -111 28 -130 4
-19 12 -51 18 -70 6 -19 18 -60 27 -90 112 -390 289 -779 519 -1144 15 -24 89
-133 136 -201 19 -27 73 -99 120 -159 544 -693 1302 -1221 2126 -1481 61 -20
124 -39 140 -45 179 -56 523 -124 775 -152 178 -20 777 -17 959 5 552 67 1030
209 1511 452 605 304 1140 752 1548 1297 93 124 260 374 283 423 6 11 30 56
55 100 89 159 227 456 276 595 140 398 197 634 255 1045 15 108 18 196 17 520
0 351 -2 406 -23 550 -94 662 -286 1212 -615 1760 -82 138 -231 355 -295 431
-14 17 -42 51 -61 75 -205 257 -542 574 -835 786 -99 71 -308 208 -345 226 -8
4 -31 17 -50 28 -31 19 -94 54 -185 103 -263 141 -746 319 -1020 376 -277 57
-391 75 -605 97 -51 6 -74 12 -72 21 1 9 -75 12 -349 12 -203 0 -348 -4 -345
-9z"/>
<path d="M4763 8251 c-132 -21 -291 -136 -360 -258 -62 -112 -92 -250 -61
-281 16 -16 169 -16 190 1 9 6 26 43 38 80 29 89 71 143 150 191 54 32 76 40
132 44 204 14 372 -177 329 -375 -16 -72 -49 -130 -97 -173 -45 -39 -78 -53
-167 -74 -38 -9 -81 -22 -96 -31 -36 -18 -61 -71 -61 -128 0 -73 -12 -94 -62
-105 -24 -6 -79 -20 -123 -32 -44 -12 -98 -26 -120 -30 -22 -4 -114 -26 -204
-49 -90 -23 -177 -41 -194 -39 -30 3 -32 6 -42 65 -22 123 -79 141 -293 93
-23 -6 -53 -10 -67 -10 -13 0 -50 -7 -82 -15 -54 -15 -108 -24 -253 -45 -30
-4 -91 -15 -135 -24 -112 -23 -168 -33 -255 -46 -41 -7 -124 -24 -184 -38
l-109 -27 -541 -539 c-297 -296 -551 -552 -563 -569 -29 -38 -30 -101 -4 -140
25 -39 847 -855 890 -884 42 -28 93 -30 135 -3 17 10 71 60 121 110 49 50 96
89 105 88 13 -3 15 -44 18 -305 2 -264 0 -303 -14 -317 -13 -14 -61 -16 -382
-16 -225 0 -389 -4 -426 -11 -221 -41 -376 -172 -443 -374 -63 -192 -17 -396
123 -547 24 -26 44 -52 44 -57 0 -6 -22 -34 -49 -62 -86 -90 -135 -204 -146
-342 -12 -133 49 -297 147 -398 26 -27 48 -54 48 -60 0 -5 -17 -28 -39 -52
-39 -43 -98 -131 -118 -178 -24 -55 -45 -193 -39 -250 11 -96 50 -203 99 -271
86 -120 175 -179 327 -217 l86 -21 1984 2 c1840 3 1987 4 2015 20 17 9 229
216 472 460 375 377 443 449 452 483 8 27 11 429 11 1277 0 812 3 1239 10
1243 5 3 55 -37 109 -91 55 -53 118 -108 141 -121 80 -48 71 -55 563 436 241
240 445 448 453 463 23 45 18 100 -15 144 -16 21 -269 278 -562 570 -450 447
-540 532 -574 542 -67 19 -246 54 -320 62 -38 4 -113 18 -165 30 -52 12 -124
26 -160 31 -160 23 -188 27 -230 39 -94 26 -335 55 -382 46 -48 -9 -75 -47
-86 -117 l-7 -54 -40 1 c-42 0 -114 15 -275 57 -52 13 -122 30 -155 36 -33 7
-87 21 -120 31 -33 10 -72 21 -87 24 -49 11 -32 34 55 75 199 93 317 274 317
491 0 219 -119 408 -315 501 -73 35 -89 39 -185 43 -58 3 -129 1 -157 -3z
m248 -1341 c57 -16 113 -30 123 -30 11 0 33 -4 50 -9 91 -27 178 -50 231 -61
104 -21 195 -52 205 -70 12 -22 -55 -116 -125 -178 -109 -95 -276 -184 -404
-214 -69 -16 -317 -22 -381 -8 -188 38 -334 113 -467 237 -73 68 -115 127
-111 156 3 23 61 45 188 72 83 18 213 52 248 66 13 5 35 9 50 10 15 0 68 13
117 29 116 36 150 36 276 0z m-1211 -36 c11 -25 20 -53 20 -62 0 -31 65 -166
117 -242 142 -210 418 -396 654 -441 259 -49 518 -32 714 47 102 41 201 93
260 138 76 57 196 181 244 251 55 80 118 217 127 276 4 22 14 50 24 61 16 21
17 21 106 3 49 -10 114 -21 144 -26 152 -23 188 -29 220 -40 19 -6 64 -15 100
-20 135 -18 197 -28 255 -42 33 -8 94 -20 135 -27 l75 -13 478 -477 c262 -262
477 -484 477 -493 0 -10 -149 -166 -330 -347 -253 -252 -336 -330 -355 -330
-19 0 -100 75 -341 315 -259 257 -322 315 -344 315 -33 0 -140 -107 -140 -140
0 -22 52 -82 154 -179 32 -31 72 -74 87 -95 l29 -39 0 -1301 c0 -802 -4 -1307
-10 -1316 -8 -13 -65 -15 -387 -18 -421 -4 -418 -4 -453 -72 -19 -37 -20 -58
-20 -395 0 -227 -4 -363 -10 -376 -10 -18 -26 -19 -460 -19 l-450 0 0 25 c0
13 11 48 24 77 37 80 49 184 35 293 -14 109 -49 185 -125 275 -30 35 -54 71
-54 79 0 8 16 31 35 51 18 19 56 72 83 116 43 72 50 93 62 174 25 171 -17 318
-125 445 -28 33 -55 65 -59 72 -4 8 15 36 49 73 109 118 159 283 136 446 -13
96 -19 112 -74 207 -71 122 -204 215 -360 252 -51 12 -182 15 -769 15 -629 0
-708 2 -722 16 -14 14 -16 69 -16 456 l0 441 135 137 c91 93 135 144 135 159
0 35 -106 141 -141 141 -22 0 -83 -55 -345 -315 -207 -204 -325 -315 -338
-315 -28 0 -676 648 -676 675 0 12 171 190 472 492 494 495 504 503 587 503
23 0 149 24 269 50 23 6 57 10 75 10 17 0 57 7 87 16 54 15 101 23 245 44 39
5 95 16 125 24 98 25 108 22 130 -30z m743 -2764 c56 -17 73 -29 124 -84 68
-72 88 -124 87 -221 -1 -116 -85 -232 -201 -280 l-63 -25 -1249 0 -1250 0 -66
31 c-71 35 -127 88 -156 153 -22 48 -26 185 -7 248 14 46 73 117 125 149 81
50 27 48 1349 49 1216 0 1243 0 1307 -20z m24 -872 c69 -34 116 -81 153 -150
30 -56 34 -72 34 -138 0 -98 -33 -170 -107 -235 -99 -86 10 -80 -1402 -80
-1436 0 -1308 -9 -1413 96 -71 71 -88 116 -86 231 1 56 8 89 23 120 26 55 92
119 155 152 l49 26 1275 0 1275 0 44 -22z m-53 -852 c30 -8 64 -20 76 -26 46
-25 103 -86 133 -144 26 -52 31 -71 30 -132 -1 -94 -34 -165 -108 -233 -96
-87 5 -81 -1404 -81 l-1240 0 -58 21 c-70 27 -143 93 -173 157 -29 60 -32 196
-6 256 37 89 119 159 210 181 81 20 2464 20 2540 1z m1993 -2 c8 -20 -388
-419 -409 -412 -10 4 -14 48 -16 204 -2 178 -1 200 15 211 12 9 71 13 210 13
169 0 194 -2 200 -16z"/>
<path d="M5440 5861 l-45 -6 -3 -633 -2 -632 27 -11 c41 -16 181 -8 193 11 5
8 10 122 10 256 0 173 3 243 12 252 8 8 62 12 178 12 116 0 170 4 178 12 18
18 16 202 -2 220 -9 10 -55 14 -172 17 -87 1 -163 7 -169 12 -11 12 -12 215
-1 227 4 4 102 9 217 12 172 4 212 8 219 20 6 8 9 65 8 125 l-3 110 -300 1
c-165 0 -320 -2 -345 -5z"/>
<path d="M4301 5846 c-12 -15 -14 -106 -12 -573 l2 -556 76 -73 c65 -62 83
-74 121 -80 75 -11 464 1 492 16 13 7 50 38 82 70 l58 58 0 558 c0 335 -4 565
-10 574 -12 20 -192 22 -212 2 -9 -9 -12 -116 -10 -490 2 -306 -1 -488 -7
-505 l-11 -27 -142 0 c-79 0 -150 5 -158 10 -13 8 -15 75 -15 504 0 344 -4
499 -11 506 -6 6 -60 14 -120 17 -95 5 -111 4 -123 -11z"/>
<path d="M1999 3963 c-19 -22 -19 -187 -1 -205 11 -11 251 -13 1263 -13 1445
0 1279 -16 1279 120 0 67 -3 85 -18 98 -17 16 -119 17 -1264 17 -1146 0 -1247
-1 -1259 -17z"/>
<path d="M1970 3054 c-6 -14 -10 -54 -10 -89 0 -35 4 -75 10 -89 l10 -26 1258
0 c965 0 1261 3 1270 12 16 16 16 190 0 206 -9 9 -305 12 -1270 12 l-1258 0
-10 -26z"/>
<path d="M1952 2198 c-19 -19 -16 -193 4 -212 14 -14 143 -16 1269 -16 1230 0
1254 0 1265 19 5 11 10 56 10 101 0 45 -5 90 -10 101 -11 19 -35 19 -1268 19
-965 0 -1261 -3 -1270 -12z"/>
</g>
</svg>
